<svg id="Logo" xmlns="http://www.w3.org/2000/svg" viewBox="0 0 77 78.33"><defs><style>.cls-1,.cls-2{fill:#ff5746;}.cls-2{opacity:0.52;}</style></defs><title>Spiti-logo-vector</title><path class="cls-1" d="M125.05,59.5,96.32,40.39a10.68,10.68,0,0,0-11.64,0L55.95,59.5a8.49,8.49,0,0,0-3.95,7v41.71c0,4.83,4.37,8.75,9.76,8.75h57.47c5.39,0,9.76-3.92,9.76-8.75V66.53A8.49,8.49,0,0,0,125.05,59.5ZM90.5,106a21.38,21.38,0,1,1,21.38-21.38A21.38,21.38,0,0,1,90.5,106Z" transform="translate(-52 -38.67)"/><circle class="cls-2" cx="38.4" cy="45.64" r="13.18"/></svg>